<?xml version="1.0" encoding="iso-8859-1"?>
<!-- Generator: Adobe Illustrator 19.0.0, SVG Export Plug-In . SVG Version: 6.00 Build 0)  -->
<svg version="1.1" id="Layer_1" xmlns="http://www.w3.org/2000/svg" xmlns:xlink="http://www.w3.org/1999/xlink" x="0px" y="0px"
	 viewBox="0 0 512 512" style="enable-background:new 0 0 512 512;" xml:space="preserve">
<g>
	<path style="fill:#331E68;" d="M100.41,381.962c-7.661,0-13.871-6.21-13.871-13.871V248.524c0-98.393,76.02-178.443,169.46-178.443
		s169.46,80.049,169.46,178.443v49.725c0,7.661-6.21,13.871-13.871,13.871s-13.871-6.21-13.871-13.871v-49.725
		c0-83.097-63.575-150.701-141.718-150.701s-141.718,67.604-141.718,150.701v119.567
		C114.281,375.752,108.071,381.962,100.41,381.962z"/>
	<path style="fill:#331E68;" d="M420.065,446.981H297.613c-7.661,0-13.871-6.21-13.871-13.871c0-7.661,6.21-13.871,13.871-13.871
		h122.452c10.278,0,18.639-8.361,18.639-18.639s-8.361-18.639-18.639-18.639H91.935c-10.278,0-18.639,8.361-18.639,18.639
		s8.361,18.639,18.639,18.639h122.452c7.661,0,13.871,6.21,13.871,13.871c0,7.661-6.21,13.871-13.871,13.871H91.935
		c-25.575,0-46.381-20.806-46.381-46.381s20.806-46.38,46.381-46.38h328.13c25.575,0,46.381,20.806,46.381,46.38
		S445.638,446.981,420.065,446.981z"/>
</g>
<path style="fill:#C9C4E1;" d="M118.932,433.11c-1.069,4.156-1.64,8.514-1.64,13.004c0,28.728,23.288,52.015,52.015,52.015
	c28.728,0,52.015-23.288,52.015-52.015c0-4.49-0.569-8.848-1.64-13.004H118.932z"/>
<path style="fill:#331E68;" d="M169.309,512c-36.329,0-65.886-29.557-65.886-65.886c0-5.57,0.699-11.109,2.078-16.462
	c1.577-6.128,7.105-10.413,13.432-10.413h100.753c6.329,0,11.855,4.283,13.432,10.413c1.379,5.353,2.078,10.893,2.078,16.462
	C235.193,482.443,205.638,512,169.309,512z M131.173,446.981c0.463,20.633,17.393,37.278,38.135,37.278s37.671-16.645,38.135-37.278
	H131.173z"/>
<path style="fill:#C9C4E1;" d="M278.916,108.881c23.663,19.511,75.222,46.685,96.7,24.186c11.8-12.363,2.056-34.571,2.59-49.301
	c0.426-11.772,4.487-22.957,4.735-34.729v-0.011c0.006-0.38,0.003-0.265,0-0.006c1.24-61.101-77.48-28.865-108.203-5.314l0,0"/>
<path style="fill:#331E68;" d="M353.028,155.439c-8.203,0-17.942-1.608-29.481-5.607c-21.315-7.385-41.587-20.468-53.454-30.251
	l17.648-21.405c25.854,21.315,66.342,37.362,77.844,25.311c3.375-3.536,1.827-13.389,0.462-22.082
	c-0.942-5.998-1.917-12.199-1.702-18.142c0.247-6.812,1.441-13.045,2.597-19.072c1.039-5.421,2.021-10.543,2.131-15.376
	c0-0.032,0.001-0.065,0.001-0.098l0.001-0.104c0.273-14.969-5.41-17.846-7.281-18.793c-15.402-7.794-55.598,7.247-78.618,24.894
	l-16.878-22.017c21.099-16.175,75.263-44.209,108.022-27.628c10.549,5.339,23.007,17.333,22.489,44.152c0,0.036,0,0.072-0.001,0.107
	c-0.151,7.195-1.406,13.749-2.622,20.088c-1.003,5.229-1.949,10.169-2.118,14.853c-0.118,3.272,0.61,7.916,1.384,12.832
	c2.128,13.542,5.042,32.089-7.801,45.543C379.417,149.175,369.213,155.439,353.028,155.439z"/>
<path style="fill:#C9C4E1;" d="M233.083,108.881c-23.663,19.511-75.222,46.685-96.7,24.186c-11.8-12.363-2.056-34.571-2.59-49.301
	c-0.426-11.772-4.487-22.957-4.735-34.729v-0.011c-0.006-0.38-0.003-0.265,0-0.006c-1.24-61.101,77.48-28.865,108.203-5.314l0,0"/>
<path style="fill:#331E68;" d="M158.971,155.439c-16.187,0-26.386-6.264-32.621-12.794c-12.843-13.456-9.929-32.003-7.802-45.544
	c0.773-4.916,1.502-9.561,1.384-12.832c-0.169-4.684-1.117-9.623-2.118-14.853c-1.215-6.339-2.47-12.893-2.622-20.088
	c-0.001-0.037-0.001-0.076-0.001-0.114c-0.517-26.815,11.94-38.807,22.487-44.146C170.435-11.511,224.6,16.523,245.7,32.696
	l-16.878,22.017c-23.02-17.646-63.217-32.686-78.618-24.894c-1.871,0.947-7.553,3.823-7.281,18.793l0,0l0.001,0.104
	c0,0.032,0.001,0.065,0.001,0.098c0.11,4.833,1.092,9.955,2.131,15.376c1.155,6.027,2.35,12.26,2.597,19.072
	c0.215,5.942-0.76,12.144-1.702,18.142c-1.366,8.694-2.914,18.547,0.462,22.084c11.499,12.044,51.989-3.998,77.842-25.313
	l17.648,21.405c-11.865,9.783-32.138,22.866-53.454,30.251C176.915,153.83,167.174,155.439,158.971,155.439z"/>
<path style="fill:#C9C4E1;" d="M218.977,85.455c0,16.49,13.369,29.857,29.857,29.857h14.333c16.49,0,29.857-13.369,29.857-29.857
	V69.336c0-16.49-13.367-29.857-29.857-29.857h-14.333c-16.488,0-29.857,13.367-29.857,29.857V85.455z"/>
<path style="fill:#331E68;" d="M263.166,129.182h-14.333c-24.111,0-43.727-19.616-43.727-43.727V69.336
	c0-24.111,19.616-43.726,43.727-43.726h14.333c24.111,0,43.727,19.616,43.727,43.726v16.119
	C306.894,109.566,287.278,129.182,263.166,129.182z M248.834,53.35c-8.815,0-15.986,7.171-15.986,15.985v16.119
	c0,8.815,7.171,15.986,15.986,15.986h14.333c8.815,0,15.986-7.171,15.986-15.986V69.336c0-8.813-7.171-15.985-15.986-15.985h-14.333
	V53.35z"/>
<g>
</g>
<g>
</g>
<g>
</g>
<g>
</g>
<g>
</g>
<g>
</g>
<g>
</g>
<g>
</g>
<g>
</g>
<g>
</g>
<g>
</g>
<g>
</g>
<g>
</g>
<g>
</g>
<g>
</g>
</svg>
