<?xml version="1.0" encoding="utf-8"?><svg version="1.1" id="Layer_1" xmlns="http://www.w3.org/2000/svg" xmlns:xlink="http://www.w3.org/1999/xlink" x="0px" y="0px" viewBox="0 0 103.12 122.88" style="enable-background:new 0 0 103.12 122.88" xml:space="preserve"><style type="text/css">.st0{fill-rule:evenodd;clip-rule:evenodd;}</style><g><path class="st0" d="M27.74,33.96l2.43,7.14l1.22-4.23l-0.6-0.65c-0.27-0.39-0.33-0.74-0.18-1.03c0.32-0.64,0.99-0.52,1.62-0.52 c0.66,0,1.47-0.12,1.67,0.7c0.07,0.27-0.02,0.56-0.21,0.86l-0.6,0.65l1.22,4.23l2.2-7.14c1.59,1.43,6.28,1.71,8.02,2.69 c0.55,0.31,1.05,0.7,1.45,1.23c1.24,1.64,1.24,1.93,1.45,3.98c-0.09,0.94-0.62,1.49-1.68,1.57H18.49 c-1.05-0.08-1.59-0.62-1.68-1.57c0.21-2.05,0.21-2.35,1.45-3.98c0.4-0.53,0.9-0.92,1.45-1.23C21.46,35.67,26.15,35.38,27.74,33.96 L27.74,33.96L27.74,33.96z M70.47,24.86c-1.09,0-1.98-0.89-1.98-2c0-1.1,0.88-2,1.98-2h16.68c1.09,0,1.98,0.89,1.98,2 c0,1.1-0.88,2-1.98,2H70.47L70.47,24.86z M1.18,122.01C0.49,121.69,0,121,0,120.18V2c0-1.1,0.89-2,2-2H21.4h79.72c1.1,0,2,0.89,2,2 v107.73c0,0.11-0.01,0.21-0.02,0.31c-0.28,3.93-1.56,6.99-3.86,9.18c-2.3,2.18-5.53,3.4-9.72,3.64c-0.09,0.01-0.17,0.02-0.26,0.02 H2.83C2.15,122.88,1.54,122.53,1.18,122.01L1.18,122.01z M99.13,109.68V3.99H21.4H3.99v114.9h85.26l0.04,0 c3.21-0.18,5.61-1.04,7.2-2.55C98.06,114.85,98.93,112.62,99.13,109.68L99.13,109.68z M16.82,90.07c-1.09,0-1.98-0.89-1.98-2 c0-1.1,0.88-2,1.98-2h70.5c1.09,0,1.98,0.89,1.98,2c0,1.1-0.88,2-1.98,2H16.82L16.82,90.07z M17.14,73.77c-1.09,0-1.98-0.89-1.98-2 s0.88-2,1.98-2h70c1.09,0,1.98,0.89,1.98,2s-0.88,2-1.98,2H17.14L17.14,73.77z M16.82,57.46c-1.09,0-1.98-0.89-1.98-2 s0.88-2,1.98-2h30.13c1.09,0,1.98,0.89,1.98,2s-0.88,2-1.98,2H16.82L16.82,57.46z M54.64,57.46c-1.09,0-1.98-0.89-1.98-2 s0.88-2,1.98-2h32.5c1.09,0,1.98,0.89,1.98,2s-0.88,2-1.98,2H54.64L54.64,57.46z M57.91,41.16c-1.09,0-1.98-0.89-1.98-2 c0-1.1,0.88-2,1.98-2h29.23c1.09,0,1.98,0.89,1.98,2c0,1.1-0.88,2-1.98,2H57.91L57.91,41.16z M70.47,106.37 c-1.09,0-1.98-0.89-1.98-2c0-1.1,0.88-2,1.98-2h16.68c1.09,0,1.98,0.89,1.98,2c0,1.1-0.88,2-1.98,2H70.47L70.47,106.37z M26.44,23.71c0.23,0.09,0.47,0.11,0.72,0.06l-0.34-2.74c0.18-0.68,0.45-1.2,0.81-1.59c0.37-0.4,0.85-0.65,1.41-0.76 c0.74-0.05,0.97,0.49,1.71,0.96c2.26,1.44,4.17,1.93,6.96,1.97l-0.45,2.29c0.12,0.01,0.24,0.01,0.36-0.01 c0.03,0.01,0.07,0.01,0.1,0.01c0.51-0.05,0.83,0.01,0.92,0.2c0.12,0.24,0.02,0.7-0.3,1.45l-1.53,2.52 c-0.57,0.94-1.15,1.88-1.89,2.57c-0.71,0.67-1.59,1.11-2.79,1.11c-1.11,0-1.95-0.43-2.64-1.06c-0.71-0.65-1.29-1.54-1.83-2.41 l-1.36-2.16l0,0l-0.01-0.01c-0.42-0.63-0.64-1.18-0.66-1.6c0-0.15,0.02-0.28,0.07-0.39c0.05-0.1,0.12-0.18,0.21-0.25 C26.05,23.79,26.22,23.73,26.44,23.71L26.44,23.71L26.44,23.71z M38.63,23.32l0.09-3.58c-0.1-1.43-0.57-2.51-1.33-3.32 c-1.85-2-5.3-2.51-7.91-1.57c-0.44,0.16-0.85,0.36-1.23,0.6c-1.08,0.69-1.94,1.68-2.29,2.92c-0.08,0.29-0.14,0.59-0.17,0.88 c-0.06,1.25-0.02,2.75,0.07,3.93c-0.11,0.04-0.21,0.1-0.3,0.16c-0.2,0.14-0.35,0.31-0.45,0.52c-0.09,0.2-0.14,0.43-0.13,0.68 c0.02,0.54,0.27,1.21,0.76,1.94l1.36,2.16c0.57,0.9,1.17,1.83,1.95,2.54c0.8,0.73,1.78,1.23,3.08,1.23c1.39,0,2.41-0.51,3.24-1.29 c0.8-0.75,1.4-1.73,2-2.71l1.55-2.55c0.01-0.01,0.01-0.03,0.02-0.04h0c0.41-0.94,0.51-1.59,0.29-2.02 C39.1,23.57,38.91,23.4,38.63,23.32L38.63,23.32L38.63,23.32z"/></g></svg>